<?xml version="1.0" encoding="UTF-8"?>
<!DOCTYPE svg PUBLIC "-//W3C//DTD SVG 1.1//EN" "http://www.w3.org/Graphics/SVG/1.1/DTD/svg11.dtd">
<!-- Creator: CorelDRAW -->
<svg xmlns="http://www.w3.org/2000/svg" xml:space="preserve" width="50.271mm" height="119.509mm" version="1.1" style="shape-rendering:geometricPrecision; text-rendering:geometricPrecision; image-rendering:optimizeQuality; fill-rule:evenodd; clip-rule:evenodd"
viewBox="0 0 5027.1 11950.9"
 xmlns:xlink="http://www.w3.org/1999/xlink"
 xmlns:xodm="http://www.corel.com/coreldraw/odm/2003">
 <defs>
  <style type="text/css">
   <![CDATA[
    .str0 {stroke:black;stroke-width:25;stroke-linecap:round;stroke-linejoin:round;stroke-miterlimit:22.9256}
    .fil1 {fill:#373435;fill-rule:nonzero}
    .fil0 {fill:#EAEAEA;fill-rule:nonzero}
   ]]>
  </style>
 </defs>
 <g id="Camada_x0020_1">
  <metadata id="CorelCorpID_0Corel-Layer"/>
  <g id="_2470356172000">
   <path class="fil0 str0" d="M2576.37 6834.52c-17.61,207.38 123.14,1304.95 195.77,1735.32 34.58,203.89 129.4,536.08 95.3,712.45 -48.71,245.82 -62.79,563.93 -35.98,749.16 16.9,112.51 70.14,631.3 -6.04,821.06 -39.84,99.51 -112.87,609.47 -112.87,609.47 -190.28,480.4 -82.9,456.77 -82.9,456.77 58.9,72.29 159.82,5.69 159.82,5.69 76.86,49 130.09,-11.64 130.09,-11.64 65.96,54.61 142.9,-6.72 142.9,-6.72 82.87,43.02 159.76,-36.33 159.76,-36.33 47.6,23.97 59.24,-6.32 59.24,-6.32 142.85,-9.13 -79.69,-466.28 -79.69,-466.28 -53.29,-410.55 52.86,-639.04 52.86,-639.04 347.77,-1031.32 365.44,-1305.01 226.43,-1693.68 -39.16,-112.18 -49.05,-156.61 -31.04,-205.32 41.65,-112.42 11.3,-564.64 62.08,-744.19 98.02,-346.31 194.68,-1224.6 245.08,-1634.41 67.71,-552 -239.85,-1292.15 -239.85,-1292.15 -67.38,-301.2 31.38,-1374.32 31.38,-1374.32 137.93,214.6 132.64,593.4 132.64,593.4 -21.88,397.3 320.97,1004.52 320.97,1004.52 164.73,250.91 227.11,488.98 227.11,506.65 0,72.29 -15.82,247.26 -15.82,247.26l6.33 152.4c2.83,38.81 24.65,172.42 21.14,237.01 -25.72,397.48 37.41,322.69 37.41,322.69 53.29,0 111.84,-319.83 111.84,-319.83 0,82.47 -20.16,329.4 24.34,422.54 53.23,111.1 92.36,-19.05 93.08,-45.19 14.08,-506.07 44.48,-373.49 44.48,-373.49 29.6,410.55 65.98,503.29 131.2,471.2 49.4,-23.58 4.21,-492.68 4.21,-492.68 84.64,278.66 148.8,323.03 148.8,323.03 139.67,98.08 53.31,-172.78 33.89,-226.41 -103.32,-284.98 -106.52,-383.75 -106.52,-383.75 129.12,256.09 226.43,246.59 226.43,246.59 125.92,-40.21 -110.06,-402.8 -248.31,-576.53 -70.56,-88.5 -161.55,-207.01 -187.96,-277.38 -43.05,-119.2 -75.54,-502.42 -75.54,-502.42 -13.04,-452.2 -124.83,-648.63 -124.83,-648.63 -191.13,-305.94 -227.12,-876.64 -227.12,-876.64l-8.44 -963.56c-67.01,-657.24 -551.31,-661.99 -551.31,-661.99 -489.5,-72.87 -557.63,-231 -557.63,-231 -103.67,-149.21 -44.43,-435.23 -44.43,-435.23 86.02,-69.97 119.22,-255.73 119.22,-255.73 142.83,-109.53 135.81,-269.8 69.85,-268.06 -52.94,1.39 -40.95,-42.46 -40.95,-42.46 89.32,-721.48 -551.19,-758.32 -551.19,-758.32l-97.78 0c0,0 -640.8,36.84 -551.59,758.15 0,0 11.98,43.9 -41.42,42.45 -65.8,-1.73 -71.94,158.54 70.38,268.07 0,0 33.13,185.7 119.2,255.73 0,0 59.26,286.02 -44.43,435.23 0,0 -67.88,158.13 -557.62,231 0,0 -485.1,4.75 -551.08,662l-9.15 963.53c0,0 -35.27,570.74 -227.17,876.67 0,0 -111.27,196.48 -124.13,648.63 0,0 -32.61,383.2 -75.47,502.42 -26.12,70.03 -117.06,188.54 -188.19,277.39 -139.48,173.35 -373.89,535.2 -248.49,576.5 0,0 97.83,9.5 226.42,-246.57 0,0 -2.66,98.06 -105.82,383.73 -20.28,52.94 -106.52,323.79 33.19,226.43 0,0 64.69,-44.43 148.8,-323.06 0,0 -45.12,469.13 5.1,492.71 65.62,32.14 101.42,-60.64 131.02,-471.2 0,0 30.35,-132.58 44.42,373.49 0.7,26.11 38.99,156.26 92.45,45.16 45.12,-93.13 24.85,-339.64 24.85,-422.54 0,0 57.86,319.86 111.96,319.86 0,0 63.66,74.77 37.54,-322.69 -4.23,-64.93 18.53,-198.22 21.37,-237.04l6.14 -152.37c0,0 -15.87,-174.6 -15.87,-247.28 0,-18.02 62.44,-255.72 227.11,-506.65 0,0 342.5,-607.49 320.43,-1004.49 0,0 -4.75,-378.83 133.17,-593.44 0,0 97.88,1073.1 31.56,1374.35 0,0 -308.09,740.12 -240.14,1292.12 50.04,410.93 146.54,1288.05 244.78,1634.41 51.32,179.23 20.97,631.3 62.09,744.2 18.54,49.05 8.8,94.24 -31.05,205.34 -138.26,388.65 -120.65,662.41 227.12,1693.65 0,0 107.04,228.52 52.94,639.08 0,0 -222.19,457.12 -79.88,466.27 0,0 11.13,30.3 59.26,6.32 0,0 76.86,79.35 159.93,36.31 0,0 76.91,61.41 142.66,6.72 0,0 52.71,60.64 129.57,11.64 0,0 100.9,68.05 160.85,-5.66 0,0 106.52,23.62 -83.12,-456.81 0,0 -72.63,-509.29 -112.66,-609.44 -76.34,-189.71 -22.41,-709.61 -6.14,-821.05 26.24,-186.3 12.17,-503.64 -35.79,-749.2 -35.1,-175.95 59.95,-508.21 95.05,-712.44 72.11,-429.95 213.44,-1527.6 195.78,-1735.3l58.38 20.51c41.82,0.1 68.24,-20.35 68.24,-20.35z"/>
   <g>
    <path class="fil1" d="M1022.74 2478.22l-25 0.02 -0.34 -424.6 50 -0.04 0.34 424.6 -25 0.02zm2979.69 -189.67l-2979.84 2.37 -0.04 -50 2979.84 -2.37 0.04 50zm0.15 187.3l-25 0.02 -0.34 -424.6 50 -0.04 0.34 424.6 -25 0.02z"/>
   </g>
  </g>
 </g>
</svg>
