<svg width="110" height="28" viewBox="0 0 110 28" fill="none" xmlns="http://www.w3.org/2000/svg">
<path d="M10.2833 21.9825C4.98863 21.9825 0 18.3289 0 10.9912C0 3.65351 5.01924 0 10.3445 0C15.2413 0 19.067 2.91667 19.5567 7.0307H16.8022C16.3125 4.29825 13.6193 2.36403 10.3139 2.36403C5.90679 2.36403 2.66264 5.40351 2.66264 10.9912C2.66264 16.5482 5.90679 19.6798 10.3139 19.6798C11.9402 19.6798 14.0613 18.724 15.2719 17.1796C16.6814 15.3815 17.0496 12.9561 16.9552 12.9561C16.7798 12.9561 16.3125 12.9561 15.2719 12.9561H10.4363V10.6842H15.4518C17.0126 10.6842 19.5165 10.6938 19.5261 10.7034V21.7368H17.1083V17.9912C16.0983 20.3553 13.4356 21.9825 10.2833 21.9825Z" fill="white"/>
<path d="M35.3027 6.26316L30.4059 19.6184L27.5903 28H25.2337L27.1924 21.9825L21.4386 6.26316H23.9789L28.3554 18.5439L32.7319 6.26316H35.3027Z" fill="white"/>
<path d="M37.7057 21.7368V6.26316H40.1541V9.24123C40.7356 7.36842 42.4495 6.01754 44.8061 6.01754C47.3463 6.01754 49.3357 7.18421 49.8866 9.30263C50.4681 7.46053 52.5186 6.01754 54.8752 6.01754C58.2111 6.01754 60.2311 8.25877 60.2311 12.0044V21.7368H57.7827V12.6491C57.7827 10.0088 56.4667 8.19737 54.2937 8.19737C51.7229 8.19737 50.1926 10.0088 50.1926 12.6491V21.7368H47.7442V12.6491C47.7442 10.0088 46.4282 8.19737 44.2858 8.19737C41.6844 8.19737 40.1541 10.0088 40.1541 12.6491V21.7368H37.7057Z" fill="white"/>
<path d="M64.123 21.7368V0.245613H73.2433C77.9565 0.245613 80.6497 3.19298 80.6497 7.21491C80.6497 11.2368 77.9565 14.1842 73.2433 14.1842H69.6013V21.7368H64.123ZM69.6013 9.70175H72.876C74.6205 9.70175 75.4468 8.53509 75.4468 7.21491C75.4468 5.89474 74.6205 4.72807 72.876 4.72807H69.6013V9.70175Z" fill="white"/>
<path d="M92.8683 10.4386H90.1751C88.4918 10.4386 87.5124 11.7281 87.5124 13.9079V21.7368H82.4626V6.26316H87.5124V8.59649C88.4 6.75438 89.5324 6.26316 91.2462 6.26316H92.8683V10.4386Z" fill="white"/>
<path d="M101.737 21.9825C96.9316 21.9825 93.4732 18.5746 93.4732 14C93.4732 9.42544 96.9316 6.01754 101.737 6.01754C106.542 6.01754 110 9.42544 110 14C110 18.5746 106.542 21.9825 101.737 21.9825ZM101.737 17.6842C103.665 17.6842 104.95 16.2105 104.95 14C104.95 11.7895 103.665 10.3158 101.737 10.3158C99.8085 10.3158 98.5231 11.7895 98.5231 14C98.5231 16.2105 99.8085 17.6842 101.737 17.6842Z" fill="white"/>
</svg>
